<svg xmlns="http://www.w3.org/2000/svg" viewBox="0 0 900 500"><path fill="#f8f6f2" d="M0 0h900v500H0z"/><path stroke="#1c1917" stroke-dasharray="3 4" stroke-width=".5" d="M450 60v380"/><text x="225" y="85" fill="#1c1917" font-family="Space Grotesk, system-ui, sans-serif" font-size="18" font-weight="600" text-anchor="middle">Broadcast</text><text x="675" y="85" fill="#1c1917" font-family="Space Grotesk, system-ui, sans-serif" font-size="18" font-weight="600" text-anchor="middle">Slot allocation</text><path fill="#1c1917" d="M90 130h60v60H90z"/><text x="120" y="167" fill="#f8f6f2" font-family="Space Grotesk, system-ui, sans-serif" font-size="12" font-weight="600" text-anchor="middle">brand</text><path fill="none" stroke="#1c1917" stroke-width="2" d="M158 160h102"/><path fill="#1c1917" d="m260 160-10-6v12Z"/><g fill="#1c1917" opacity=".6"><circle cx="285" cy="120" r="3"/><circle cx="310" cy="140" r="3"/><circle cx="280" cy="180" r="3"/><circle cx="330" cy="110" r="3"/><circle cx="350" cy="160" r="3"/><circle cx="300" cy="220" r="3"/><circle cx="340" cy="240" r="3"/><circle cx="380" cy="130" r="3"/><circle cx="400" cy="190" r="3"/><circle cx="275" cy="260" r="3"/><circle cx="320" cy="290" r="3"/><circle cx="360" cy="300" r="3"/><circle cx="390" cy="255" r="3"/><circle cx="290" cy="320" r="3"/><circle cx="340" cy="340" r="3"/><circle cx="380" cy="360" r="3"/><circle cx="295" cy="380" r="3"/><circle cx="350" cy="395" r="3"/><circle cx="400" cy="340" r="3"/><circle cx="410" cy="290" r="3"/><circle cx="320" cy="140" r="3"/><circle cx="365" cy="215" r="3"/><circle cx="305" cy="155" r="3"/><circle cx="335" cy="175" r="3"/><circle cx="385" cy="300" r="3"/><circle cx="395" cy="410" r="3"/><circle cx="275" cy="215" r="3"/><circle cx="295" cy="280" r="3"/></g><circle cx="350" cy="160" r="5" fill="#d97706"/><text x="365" y="164" fill="#d97706" font-family="Space Grotesk, system-ui, sans-serif" font-size="11" font-weight="500">1</text><text x="225" y="430" fill="#1c1917" font-family="Literata, Georgia, serif" font-size="13" font-style="italic" opacity=".8" text-anchor="middle">one signal, diffuse response</text><path fill="#1c1917" d="M490 120h50v50h-50z"/><text x="515" y="151" fill="#f8f6f2" font-family="Space Grotesk, system-ui, sans-serif" font-size="10" font-weight="600" text-anchor="middle">brand</text><path fill="none" stroke="#1c1917" d="M560 115h46v46h-46z"/><path fill="#fef3c7" stroke="#1c1917" stroke-width=".6" d="M563 145h40v10h-40z"/><text x="583" y="153" fill="#1c1917" font-family="Space Grotesk, system-ui, sans-serif" font-size="7" font-weight="600" text-anchor="middle">60 slots</text><text x="583" y="133" fill="#1c1917" font-family="Space Grotesk, system-ui, sans-serif" font-size="8" font-weight="500" text-anchor="middle">ch 1</text><path fill="none" stroke="#1c1917" d="M560 175h46v46h-46z"/><path fill="#fef3c7" stroke="#1c1917" stroke-width=".6" d="M563 205h40v10h-40z"/><text x="583" y="213" fill="#1c1917" font-family="Space Grotesk, system-ui, sans-serif" font-size="7" font-weight="600" text-anchor="middle">60 slots</text><text x="583" y="193" fill="#1c1917" font-family="Space Grotesk, system-ui, sans-serif" font-size="8" font-weight="500" text-anchor="middle">ch 6</text><path fill="none" stroke="#1c1917" d="M614 115h46v46h-46z"/><path fill="#fef3c7" stroke="#1c1917" stroke-width=".6" d="M617 145h40v10h-40z"/><text x="637" y="153" fill="#1c1917" font-family="Space Grotesk, system-ui, sans-serif" font-size="7" font-weight="600" text-anchor="middle">60 slots</text><text x="637" y="133" fill="#1c1917" font-family="Space Grotesk, system-ui, sans-serif" font-size="8" font-weight="500" text-anchor="middle">ch 2</text><path fill="none" stroke="#1c1917" d="M614 175h46v46h-46z"/><path fill="#fef3c7" stroke="#1c1917" stroke-width=".6" d="M617 205h40v10h-40z"/><text x="637" y="213" fill="#1c1917" font-family="Space Grotesk, system-ui, sans-serif" font-size="7" font-weight="600" text-anchor="middle">60 slots</text><text x="637" y="193" fill="#1c1917" font-family="Space Grotesk, system-ui, sans-serif" font-size="8" font-weight="500" text-anchor="middle">ch 7</text><path fill="none" stroke="#1c1917" d="M668 115h46v46h-46z"/><path fill="#fef3c7" stroke="#1c1917" stroke-width=".6" d="M671 145h40v10h-40z"/><text x="691" y="153" fill="#1c1917" font-family="Space Grotesk, system-ui, sans-serif" font-size="7" font-weight="600" text-anchor="middle">60 slots</text><text x="691" y="133" fill="#1c1917" font-family="Space Grotesk, system-ui, sans-serif" font-size="8" font-weight="500" text-anchor="middle">ch 3</text><path fill="none" stroke="#1c1917" d="M668 175h46v46h-46z"/><path fill="#fef3c7" stroke="#1c1917" stroke-width=".6" d="M671 205h40v10h-40z"/><text x="691" y="213" fill="#1c1917" font-family="Space Grotesk, system-ui, sans-serif" font-size="7" font-weight="600" text-anchor="middle">60 slots</text><text x="691" y="193" fill="#1c1917" font-family="Space Grotesk, system-ui, sans-serif" font-size="8" font-weight="500" text-anchor="middle">ch 8</text><path fill="none" stroke="#1c1917" d="M722 115h46v46h-46z"/><path fill="#fef3c7" stroke="#1c1917" stroke-width=".6" d="M725 145h40v10h-40z"/><text x="745" y="153" fill="#1c1917" font-family="Space Grotesk, system-ui, sans-serif" font-size="7" font-weight="600" text-anchor="middle">60 slots</text><text x="745" y="133" fill="#1c1917" font-family="Space Grotesk, system-ui, sans-serif" font-size="8" font-weight="500" text-anchor="middle">ch 4</text><path fill="none" stroke="#1c1917" d="M722 175h46v46h-46z"/><path fill="#fef3c7" stroke="#1c1917" stroke-width=".6" d="M725 205h40v10h-40z"/><text x="745" y="213" fill="#1c1917" font-family="Space Grotesk, system-ui, sans-serif" font-size="7" font-weight="600" text-anchor="middle">60 slots</text><text x="745" y="193" fill="#1c1917" font-family="Space Grotesk, system-ui, sans-serif" font-size="8" font-weight="500" text-anchor="middle">ch 9</text><path fill="none" stroke="#1c1917" d="M776 115h46v46h-46z"/><path fill="#fef3c7" stroke="#1c1917" stroke-width=".6" d="M779 145h40v10h-40z"/><text x="799" y="153" fill="#1c1917" font-family="Space Grotesk, system-ui, sans-serif" font-size="7" font-weight="600" text-anchor="middle">60 slots</text><text x="799" y="133" fill="#1c1917" font-family="Space Grotesk, system-ui, sans-serif" font-size="8" font-weight="500" text-anchor="middle">ch 5</text><path fill="none" stroke="#1c1917" d="M776 175h46v46h-46z"/><path fill="#fef3c7" stroke="#1c1917" stroke-width=".6" d="M779 205h40v10h-40z"/><text x="799" y="213" fill="#1c1917" font-family="Space Grotesk, system-ui, sans-serif" font-size="7" font-weight="600" text-anchor="middle">60 slots</text><text x="799" y="193" fill="#1c1917" font-family="Space Grotesk, system-ui, sans-serif" font-size="8" font-weight="500" text-anchor="middle">ch 10</text><path stroke="#1c1917" d="m542 145 16-7m-16 7 16 13m-16-13 16 53m25 27v25m0 0-4-6m4 6 4-6"/><circle cx="568" cy="260" r="1.8" fill="#d97706"/><circle cx="574" cy="260" r="1.8" fill="#d97706"/><circle cx="580" cy="260" r="1.8" fill="#d97706"/><circle cx="586" cy="260" r="1.8" fill="#d97706"/><circle cx="592" cy="260" r="1.8" fill="#d97706"/><circle cx="598" cy="260" r="1.8" fill="#d97706"/><circle cx="568" cy="267" r="1.8" fill="#d97706"/><circle cx="574" cy="267" r="1.8" fill="#d97706"/><circle cx="580" cy="267" r="1.8" fill="#d97706"/><circle cx="586" cy="267" r="1.8" fill="#d97706"/><circle cx="592" cy="267" r="1.8" fill="#d97706"/><circle cx="598" cy="267" r="1.8" fill="#d97706"/><circle cx="568" cy="274" r="1.8" fill="#d97706"/><circle cx="574" cy="274" r="1.8" fill="#d97706"/><circle cx="580" cy="274" r="1.8" fill="#d97706"/><circle cx="586" cy="274" r="1.8" fill="#d97706"/><circle cx="592" cy="274" r="1.8" fill="#d97706"/><circle cx="598" cy="274" r="1.8" fill="#d97706"/><circle cx="568" cy="281" r="1.8" fill="#d97706"/><circle cx="574" cy="281" r="1.8" fill="#d97706"/><circle cx="580" cy="281" r="1.8" fill="#d97706"/><circle cx="586" cy="281" r="1.8" fill="#d97706"/><circle cx="592" cy="281" r="1.8" fill="#d97706"/><circle cx="598" cy="281" r="1.8" fill="#d97706"/><circle cx="568" cy="288" r="1.8" fill="#d97706"/><circle cx="574" cy="288" r="1.8" fill="#d97706"/><circle cx="580" cy="288" r="1.8" fill="#d97706"/><circle cx="586" cy="288" r="1.8" fill="#d97706"/><circle cx="592" cy="288" r="1.8" fill="#d97706"/><circle cx="598" cy="288" r="1.8" fill="#d97706"/><path stroke="#1c1917" d="M637 225v25m0 0-4-6m4 6 4-6"/><circle cx="622" cy="260" r="1.8" fill="#d97706"/><circle cx="628" cy="260" r="1.8" fill="#d97706"/><circle cx="634" cy="260" r="1.8" fill="#d97706"/><circle cx="640" cy="260" r="1.8" fill="#d97706"/><circle cx="646" cy="260" r="1.8" fill="#d97706"/><circle cx="652" cy="260" r="1.8" fill="#d97706"/><circle cx="622" cy="267" r="1.8" fill="#d97706"/><circle cx="628" cy="267" r="1.8" fill="#d97706"/><circle cx="634" cy="267" r="1.8" fill="#d97706"/><circle cx="640" cy="267" r="1.8" fill="#d97706"/><circle cx="646" cy="267" r="1.8" fill="#d97706"/><circle cx="652" cy="267" r="1.8" fill="#d97706"/><circle cx="622" cy="274" r="1.8" fill="#d97706"/><circle cx="628" cy="274" r="1.8" fill="#d97706"/><circle cx="634" cy="274" r="1.8" fill="#d97706"/><circle cx="640" cy="274" r="1.8" fill="#d97706"/><circle cx="646" cy="274" r="1.8" fill="#d97706"/><circle cx="652" cy="274" r="1.8" fill="#d97706"/><circle cx="622" cy="281" r="1.8" fill="#d97706"/><circle cx="628" cy="281" r="1.8" fill="#d97706"/><circle cx="634" cy="281" r="1.8" fill="#d97706"/><circle cx="640" cy="281" r="1.8" fill="#d97706"/><circle cx="646" cy="281" r="1.8" fill="#d97706"/><circle cx="652" cy="281" r="1.8" fill="#d97706"/><circle cx="622" cy="288" r="1.8" fill="#d97706"/><circle cx="628" cy="288" r="1.8" fill="#d97706"/><circle cx="634" cy="288" r="1.8" fill="#d97706"/><circle cx="640" cy="288" r="1.8" fill="#d97706"/><circle cx="646" cy="288" r="1.8" fill="#d97706"/><circle cx="652" cy="288" r="1.8" fill="#d97706"/><path stroke="#1c1917" d="M691 225v25m0 0-4-6m4 6 4-6"/><circle cx="676" cy="260" r="1.8" fill="#d97706"/><circle cx="682" cy="260" r="1.8" fill="#d97706"/><circle cx="688" cy="260" r="1.8" fill="#d97706"/><circle cx="694" cy="260" r="1.8" fill="#d97706"/><circle cx="700" cy="260" r="1.8" fill="#d97706"/><circle cx="706" cy="260" r="1.8" fill="#d97706"/><circle cx="676" cy="267" r="1.8" fill="#d97706"/><circle cx="682" cy="267" r="1.8" fill="#d97706"/><circle cx="688" cy="267" r="1.8" fill="#d97706"/><circle cx="694" cy="267" r="1.8" fill="#d97706"/><circle cx="700" cy="267" r="1.8" fill="#d97706"/><circle cx="706" cy="267" r="1.8" fill="#d97706"/><circle cx="676" cy="274" r="1.8" fill="#d97706"/><circle cx="682" cy="274" r="1.8" fill="#d97706"/><circle cx="688" cy="274" r="1.8" fill="#d97706"/><circle cx="694" cy="274" r="1.8" fill="#d97706"/><circle cx="700" cy="274" r="1.8" fill="#d97706"/><circle cx="706" cy="274" r="1.8" fill="#d97706"/><circle cx="676" cy="281" r="1.8" fill="#d97706"/><circle cx="682" cy="281" r="1.8" fill="#d97706"/><circle cx="688" cy="281" r="1.8" fill="#d97706"/><circle cx="694" cy="281" r="1.8" fill="#d97706"/><circle cx="700" cy="281" r="1.8" fill="#d97706"/><circle cx="706" cy="281" r="1.8" fill="#d97706"/><circle cx="676" cy="288" r="1.8" fill="#d97706"/><circle cx="682" cy="288" r="1.8" fill="#d97706"/><circle cx="688" cy="288" r="1.8" fill="#d97706"/><circle cx="694" cy="288" r="1.8" fill="#d97706"/><circle cx="700" cy="288" r="1.8" fill="#d97706"/><circle cx="706" cy="288" r="1.8" fill="#d97706"/><path stroke="#1c1917" d="M745 225v25m0 0-4-6m4 6 4-6"/><circle cx="730" cy="260" r="1.8" fill="#d97706"/><circle cx="736" cy="260" r="1.8" fill="#d97706"/><circle cx="742" cy="260" r="1.8" fill="#d97706"/><circle cx="748" cy="260" r="1.8" fill="#d97706"/><circle cx="754" cy="260" r="1.8" fill="#d97706"/><circle cx="760" cy="260" r="1.8" fill="#d97706"/><circle cx="730" cy="267" r="1.8" fill="#d97706"/><circle cx="736" cy="267" r="1.8" fill="#d97706"/><circle cx="742" cy="267" r="1.8" fill="#d97706"/><circle cx="748" cy="267" r="1.8" fill="#d97706"/><circle cx="754" cy="267" r="1.8" fill="#d97706"/><circle cx="760" cy="267" r="1.8" fill="#d97706"/><circle cx="730" cy="274" r="1.8" fill="#d97706"/><circle cx="736" cy="274" r="1.8" fill="#d97706"/><circle cx="742" cy="274" r="1.8" fill="#d97706"/><circle cx="748" cy="274" r="1.8" fill="#d97706"/><circle cx="754" cy="274" r="1.8" fill="#d97706"/><circle cx="760" cy="274" r="1.8" fill="#d97706"/><circle cx="730" cy="281" r="1.8" fill="#d97706"/><circle cx="736" cy="281" r="1.8" fill="#d97706"/><circle cx="742" cy="281" r="1.8" fill="#d97706"/><circle cx="748" cy="281" r="1.8" fill="#d97706"/><circle cx="754" cy="281" r="1.8" fill="#d97706"/><circle cx="760" cy="281" r="1.8" fill="#d97706"/><circle cx="730" cy="288" r="1.8" fill="#d97706"/><circle cx="736" cy="288" r="1.8" fill="#d97706"/><circle cx="742" cy="288" r="1.8" fill="#d97706"/><circle cx="748" cy="288" r="1.8" fill="#d97706"/><circle cx="754" cy="288" r="1.8" fill="#d97706"/><circle cx="760" cy="288" r="1.8" fill="#d97706"/><path stroke="#1c1917" d="M799 225v25m0 0-4-6m4 6 4-6"/><circle cx="784" cy="260" r="1.8" fill="#d97706"/><circle cx="790" cy="260" r="1.8" fill="#d97706"/><circle cx="796" cy="260" r="1.8" fill="#d97706"/><circle cx="802" cy="260" r="1.8" fill="#d97706"/><circle cx="808" cy="260" r="1.8" fill="#d97706"/><circle cx="814" cy="260" r="1.8" fill="#d97706"/><circle cx="784" cy="267" r="1.8" fill="#d97706"/><circle cx="790" cy="267" r="1.8" fill="#d97706"/><circle cx="796" cy="267" r="1.8" fill="#d97706"/><circle cx="802" cy="267" r="1.8" fill="#d97706"/><circle cx="808" cy="267" r="1.8" fill="#d97706"/><circle cx="814" cy="267" r="1.8" fill="#d97706"/><circle cx="784" cy="274" r="1.8" fill="#d97706"/><circle cx="790" cy="274" r="1.8" fill="#d97706"/><circle cx="796" cy="274" r="1.8" fill="#d97706"/><circle cx="802" cy="274" r="1.8" fill="#d97706"/><circle cx="808" cy="274" r="1.8" fill="#d97706"/><circle cx="814" cy="274" r="1.8" fill="#d97706"/><circle cx="784" cy="281" r="1.8" fill="#d97706"/><circle cx="790" cy="281" r="1.8" fill="#d97706"/><circle cx="796" cy="281" r="1.8" fill="#d97706"/><circle cx="802" cy="281" r="1.8" fill="#d97706"/><circle cx="808" cy="281" r="1.8" fill="#d97706"/><circle cx="814" cy="281" r="1.8" fill="#d97706"/><circle cx="784" cy="288" r="1.8" fill="#d97706"/><circle cx="790" cy="288" r="1.8" fill="#d97706"/><circle cx="796" cy="288" r="1.8" fill="#d97706"/><circle cx="802" cy="288" r="1.8" fill="#d97706"/><circle cx="808" cy="288" r="1.8" fill="#d97706"/><circle cx="814" cy="288" r="1.8" fill="#d97706"/><path stroke="#1c1917" d="M583 300v30m0 0-4-6m4 6 4-6"/><circle cx="568" cy="340" r="1.8" fill="#d97706"/><circle cx="574" cy="340" r="1.8" fill="#d97706"/><circle cx="580" cy="340" r="1.8" fill="#d97706"/><circle cx="586" cy="340" r="1.8" fill="#d97706"/><circle cx="592" cy="340" r="1.8" fill="#d97706"/><circle cx="598" cy="340" r="1.8" fill="#d97706"/><circle cx="568" cy="347" r="1.8" fill="#d97706"/><circle cx="574" cy="347" r="1.8" fill="#d97706"/><circle cx="580" cy="347" r="1.8" fill="#d97706"/><circle cx="586" cy="347" r="1.8" fill="#d97706"/><circle cx="592" cy="347" r="1.8" fill="#d97706"/><circle cx="598" cy="347" r="1.8" fill="#d97706"/><circle cx="568" cy="354" r="1.8" fill="#d97706"/><circle cx="574" cy="354" r="1.8" fill="#d97706"/><circle cx="580" cy="354" r="1.8" fill="#d97706"/><circle cx="586" cy="354" r="1.8" fill="#d97706"/><circle cx="592" cy="354" r="1.8" fill="#d97706"/><circle cx="598" cy="354" r="1.8" fill="#d97706"/><circle cx="568" cy="361" r="1.8" fill="#d97706"/><circle cx="574" cy="361" r="1.8" fill="#d97706"/><circle cx="580" cy="361" r="1.8" fill="#d97706"/><circle cx="586" cy="361" r="1.8" fill="#d97706"/><circle cx="592" cy="361" r="1.8" fill="#d97706"/><circle cx="598" cy="361" r="1.8" fill="#d97706"/><circle cx="568" cy="368" r="1.8" fill="#d97706"/><circle cx="574" cy="368" r="1.8" fill="#d97706"/><circle cx="580" cy="368" r="1.8" fill="#d97706"/><circle cx="586" cy="368" r="1.8" fill="#d97706"/><circle cx="592" cy="368" r="1.8" fill="#d97706"/><circle cx="598" cy="368" r="1.8" fill="#d97706"/><path stroke="#1c1917" d="M637 300v30m0 0-4-6m4 6 4-6"/><circle cx="622" cy="340" r="1.8" fill="#d97706"/><circle cx="628" cy="340" r="1.8" fill="#d97706"/><circle cx="634" cy="340" r="1.8" fill="#d97706"/><circle cx="640" cy="340" r="1.8" fill="#d97706"/><circle cx="646" cy="340" r="1.8" fill="#d97706"/><circle cx="652" cy="340" r="1.8" fill="#d97706"/><circle cx="622" cy="347" r="1.8" fill="#d97706"/><circle cx="628" cy="347" r="1.8" fill="#d97706"/><circle cx="634" cy="347" r="1.8" fill="#d97706"/><circle cx="640" cy="347" r="1.8" fill="#d97706"/><circle cx="646" cy="347" r="1.8" fill="#d97706"/><circle cx="652" cy="347" r="1.8" fill="#d97706"/><circle cx="622" cy="354" r="1.8" fill="#d97706"/><circle cx="628" cy="354" r="1.8" fill="#d97706"/><circle cx="634" cy="354" r="1.8" fill="#d97706"/><circle cx="640" cy="354" r="1.8" fill="#d97706"/><circle cx="646" cy="354" r="1.8" fill="#d97706"/><circle cx="652" cy="354" r="1.8" fill="#d97706"/><circle cx="622" cy="361" r="1.8" fill="#d97706"/><circle cx="628" cy="361" r="1.8" fill="#d97706"/><circle cx="634" cy="361" r="1.8" fill="#d97706"/><circle cx="640" cy="361" r="1.8" fill="#d97706"/><circle cx="646" cy="361" r="1.8" fill="#d97706"/><circle cx="652" cy="361" r="1.8" fill="#d97706"/><circle cx="622" cy="368" r="1.8" fill="#d97706"/><circle cx="628" cy="368" r="1.8" fill="#d97706"/><circle cx="634" cy="368" r="1.8" fill="#d97706"/><circle cx="640" cy="368" r="1.8" fill="#d97706"/><circle cx="646" cy="368" r="1.8" fill="#d97706"/><circle cx="652" cy="368" r="1.8" fill="#d97706"/><path stroke="#1c1917" d="M691 300v30m0 0-4-6m4 6 4-6"/><circle cx="676" cy="340" r="1.8" fill="#d97706"/><circle cx="682" cy="340" r="1.8" fill="#d97706"/><circle cx="688" cy="340" r="1.8" fill="#d97706"/><circle cx="694" cy="340" r="1.8" fill="#d97706"/><circle cx="700" cy="340" r="1.8" fill="#d97706"/><circle cx="706" cy="340" r="1.8" fill="#d97706"/><circle cx="676" cy="347" r="1.8" fill="#d97706"/><circle cx="682" cy="347" r="1.8" fill="#d97706"/><circle cx="688" cy="347" r="1.8" fill="#d97706"/><circle cx="694" cy="347" r="1.8" fill="#d97706"/><circle cx="700" cy="347" r="1.8" fill="#d97706"/><circle cx="706" cy="347" r="1.8" fill="#d97706"/><circle cx="676" cy="354" r="1.8" fill="#d97706"/><circle cx="682" cy="354" r="1.8" fill="#d97706"/><circle cx="688" cy="354" r="1.8" fill="#d97706"/><circle cx="694" cy="354" r="1.8" fill="#d97706"/><circle cx="700" cy="354" r="1.8" fill="#d97706"/><circle cx="706" cy="354" r="1.8" fill="#d97706"/><circle cx="676" cy="361" r="1.8" fill="#d97706"/><circle cx="682" cy="361" r="1.8" fill="#d97706"/><circle cx="688" cy="361" r="1.8" fill="#d97706"/><circle cx="694" cy="361" r="1.8" fill="#d97706"/><circle cx="700" cy="361" r="1.8" fill="#d97706"/><circle cx="706" cy="361" r="1.8" fill="#d97706"/><circle cx="676" cy="368" r="1.8" fill="#d97706"/><circle cx="682" cy="368" r="1.8" fill="#d97706"/><circle cx="688" cy="368" r="1.8" fill="#d97706"/><circle cx="694" cy="368" r="1.8" fill="#d97706"/><circle cx="700" cy="368" r="1.8" fill="#d97706"/><circle cx="706" cy="368" r="1.8" fill="#d97706"/><path stroke="#1c1917" d="M745 300v30m0 0-4-6m4 6 4-6"/><circle cx="730" cy="340" r="1.8" fill="#d97706"/><circle cx="736" cy="340" r="1.8" fill="#d97706"/><circle cx="742" cy="340" r="1.8" fill="#d97706"/><circle cx="748" cy="340" r="1.8" fill="#d97706"/><circle cx="754" cy="340" r="1.8" fill="#d97706"/><circle cx="760" cy="340" r="1.8" fill="#d97706"/><circle cx="730" cy="347" r="1.8" fill="#d97706"/><circle cx="736" cy="347" r="1.8" fill="#d97706"/><circle cx="742" cy="347" r="1.8" fill="#d97706"/><circle cx="748" cy="347" r="1.8" fill="#d97706"/><circle cx="754" cy="347" r="1.8" fill="#d97706"/><circle cx="760" cy="347" r="1.8" fill="#d97706"/><circle cx="730" cy="354" r="1.8" fill="#d97706"/><circle cx="736" cy="354" r="1.8" fill="#d97706"/><circle cx="742" cy="354" r="1.8" fill="#d97706"/><circle cx="748" cy="354" r="1.8" fill="#d97706"/><circle cx="754" cy="354" r="1.8" fill="#d97706"/><circle cx="760" cy="354" r="1.8" fill="#d97706"/><circle cx="730" cy="361" r="1.8" fill="#d97706"/><circle cx="736" cy="361" r="1.8" fill="#d97706"/><circle cx="742" cy="361" r="1.8" fill="#d97706"/><circle cx="748" cy="361" r="1.8" fill="#d97706"/><circle cx="754" cy="361" r="1.8" fill="#d97706"/><circle cx="760" cy="361" r="1.8" fill="#d97706"/><circle cx="730" cy="368" r="1.8" fill="#d97706"/><circle cx="736" cy="368" r="1.8" fill="#d97706"/><circle cx="742" cy="368" r="1.8" fill="#d97706"/><circle cx="748" cy="368" r="1.8" fill="#d97706"/><circle cx="754" cy="368" r="1.8" fill="#d97706"/><circle cx="760" cy="368" r="1.8" fill="#d97706"/><path stroke="#1c1917" d="M799 300v30m0 0-4-6m4 6 4-6"/><circle cx="784" cy="340" r="1.8" fill="#d97706"/><circle cx="790" cy="340" r="1.8" fill="#d97706"/><circle cx="796" cy="340" r="1.8" fill="#d97706"/><circle cx="802" cy="340" r="1.8" fill="#d97706"/><circle cx="808" cy="340" r="1.8" fill="#d97706"/><circle cx="814" cy="340" r="1.8" fill="#d97706"/><circle cx="784" cy="347" r="1.8" fill="#d97706"/><circle cx="790" cy="347" r="1.8" fill="#d97706"/><circle cx="796" cy="347" r="1.8" fill="#d97706"/><circle cx="802" cy="347" r="1.8" fill="#d97706"/><circle cx="808" cy="347" r="1.8" fill="#d97706"/><circle cx="814" cy="347" r="1.8" fill="#d97706"/><circle cx="784" cy="354" r="1.8" fill="#d97706"/><circle cx="790" cy="354" r="1.8" fill="#d97706"/><circle cx="796" cy="354" r="1.8" fill="#d97706"/><circle cx="802" cy="354" r="1.8" fill="#d97706"/><circle cx="808" cy="354" r="1.8" fill="#d97706"/><circle cx="814" cy="354" r="1.8" fill="#d97706"/><circle cx="784" cy="361" r="1.8" fill="#d97706"/><circle cx="790" cy="361" r="1.8" fill="#d97706"/><circle cx="796" cy="361" r="1.8" fill="#d97706"/><circle cx="802" cy="361" r="1.8" fill="#d97706"/><circle cx="808" cy="361" r="1.8" fill="#d97706"/><circle cx="814" cy="361" r="1.8" fill="#d97706"/><circle cx="784" cy="368" r="1.8" fill="#d97706"/><circle cx="790" cy="368" r="1.8" fill="#d97706"/><circle cx="796" cy="368" r="1.8" fill="#d97706"/><circle cx="802" cy="368" r="1.8" fill="#d97706"/><circle cx="808" cy="368" r="1.8" fill="#d97706"/><circle cx="814" cy="368" r="1.8" fill="#d97706"/><text x="675" y="430" fill="#1c1917" font-family="Literata, Georgia, serif" font-size="13" font-style="italic" opacity=".8" text-anchor="middle">ten anchors, dense cohorts</text></svg>