<svg xmlns="http://www.w3.org/2000/svg" aria-label="Five-tier ambassador program keyed to rolling 3-month average views: T5 Marquee (≥100K) down to T1 Entry (&lt;3K)." style="display:block;width:100%;height:auto;background:#f4efe6;border:1px solid #d9d0bd;border-radius:8px" viewBox="0 0 900 500"><text x="40" y="42" fill="#8a8072" font-family="'Space Grotesk', ui-monospace, monospace" font-size="11" letter-spacing="1.5">ONE METRIC · ROLLING 3-MONTH AVG VIEWS</text><text x="40" y="80" fill="#1a1815" font-family="'Literata', Georgia, serif" font-size="22">Tier measures reach. Nothing else.</text><text x="860" y="42" fill="#8a8072" font-family="'Space Grotesk', ui-monospace, monospace" font-size="10" letter-spacing="1.5" text-anchor="end">HERO</text><path fill="#ece6da" d="M40 120h820v44H40z"/><path fill="#b8532e" d="M40 120h5v44h-5z"/><text x="70" y="148" fill="#b8532e" font-family="'Space Grotesk', ui-monospace, monospace" font-size="12">T5</text><text x="130" y="148" fill="#1a1815" font-family="'Literata', Georgia, serif" font-size="17">Marquee</text><text x="844" y="148" fill="#6a6355" font-family="'Space Grotesk', ui-monospace, monospace" font-size="12" text-anchor="end">≥ 100K / video</text><path fill="#ece6da" d="M40 174h820v44H40z"/><path fill="#c8683f" d="M40 174h5v44h-5z"/><text x="70" y="202" fill="#b8532e" font-family="'Space Grotesk', ui-monospace, monospace" font-size="12">T4</text><text x="130" y="202" fill="#1a1815" font-family="'Literata', Georgia, serif" font-size="17">Established</text><text x="844" y="202" fill="#6a6355" font-family="'Space Grotesk', ui-monospace, monospace" font-size="12" text-anchor="end">30K – 100K</text><path fill="#ece6da" d="M40 228h820v44H40z"/><path fill="#a48a68" d="M40 228h5v44h-5z"/><text x="70" y="256" fill="#b8532e" font-family="'Space Grotesk', ui-monospace, monospace" font-size="12">T3</text><text x="130" y="256" fill="#1a1815" font-family="'Literata', Georgia, serif" font-size="17">Growing</text><text x="844" y="256" fill="#6a6355" font-family="'Space Grotesk', ui-monospace, monospace" font-size="12" text-anchor="end">10K – 30K</text><path fill="#ece6da" d="M40 282h820v44H40z"/><path fill="#8a8072" d="M40 282h5v44h-5z"/><text x="70" y="310" fill="#b8532e" font-family="'Space Grotesk', ui-monospace, monospace" font-size="12">T2</text><text x="130" y="310" fill="#1a1815" font-family="'Literata', Georgia, serif" font-size="17">Emerging</text><text x="844" y="310" fill="#6a6355" font-family="'Space Grotesk', ui-monospace, monospace" font-size="12" text-anchor="end">3K – 10K</text><path fill="#ece6da" d="M40 336h820v44H40z"/><path fill="#6a6355" d="M40 336h5v44h-5z"/><text x="70" y="364" fill="#b8532e" font-family="'Space Grotesk', ui-monospace, monospace" font-size="12">T1</text><text x="130" y="364" fill="#1a1815" font-family="'Literata', Georgia, serif" font-size="17">Entry</text><text x="844" y="364" fill="#6a6355" font-family="'Space Grotesk', ui-monospace, monospace" font-size="12" text-anchor="end">&lt; 3K</text><path stroke="#d9d0bd" d="M40 410h820"/><text x="40" y="440" fill="#6a6355" font-family="'Literata', Georgia, serif" font-size="13" font-style="italic">Rolling means the number moves both ways on its own. Tier reviews are a</text><text x="40" y="462" fill="#6a6355" font-family="'Literata', Georgia, serif" font-size="13" font-style="italic">lookup, not a negotiation. Illustrative ranges.</text></svg>