<svg xmlns="http://www.w3.org/2000/svg" aria-label="Attribution table: volume vs conversion for four sources" style="display:block;width:100%;height:auto;background:#f4efe6;border:1px solid #d9d0bd;border-radius:8px" viewBox="0 0 900 460"><text x="40" y="42" fill="#8a8072" font-family="'Space Grotesk', ui-monospace, monospace" font-size="11" letter-spacing="1.5">VOLUME · CONVERSION · EVERY SOURCE</text><text x="40" y="80" fill="#1a1815" font-family="'Literata', Georgia, serif" font-size="22">Two numbers per row. One threshold, never moved.</text><text x="860" y="42" fill="#8a8072" font-family="'Space Grotesk', ui-monospace, monospace" font-size="10" letter-spacing="1.5" text-anchor="end">HERO</text><text x="220" y="120" fill="#8a8072" font-family="'Space Grotesk', ui-monospace, monospace" font-size="10" letter-spacing="1.2">CROSSED (VOLUME)</text><text x="500" y="120" fill="#8a8072" font-family="'Space Grotesk', ui-monospace, monospace" font-size="10" letter-spacing="1.2">CONVERTED</text><text x="780" y="120" fill="#b8532e" font-family="'Space Grotesk', ui-monospace, monospace" font-size="10" letter-spacing="1.2">RATE</text><path stroke="#d9d0bd" d="M40 140h820"/><text x="40" y="175" fill="#1a1815" font-family="'Literata', Georgia, serif" font-size="15">Conf talk</text><path fill="#6a6355" d="M220 161h142v12H220z"/><text x="370" y="172" fill="#1a1815" font-family="'Space Grotesk', ui-monospace, monospace" font-size="11">400</text><path fill="#b8532e" d="M500 161h25v12h-25z"/><text x="533" y="172" fill="#1a1815" font-family="'Space Grotesk', ui-monospace, monospace" font-size="11">3</text><text x="780" y="174" fill="#6a6355" font-family="'Literata', Georgia, serif" font-size="16">0.8%</text><path stroke="#d9d0bd" d="M40 200h820"/><text x="40" y="235" fill="#1a1815" font-family="'Literata', Georgia, serif" font-size="15">Partner tutorial</text><path fill="#6a6355" d="M220 221h23v12h-23z"/><text x="251" y="232" fill="#1a1815" font-family="'Space Grotesk', ui-monospace, monospace" font-size="11">40</text><path fill="#b8532e" d="M500 221h73v12h-73z"/><text x="581" y="232" fill="#b8532e" font-family="'Space Grotesk', ui-monospace, monospace" font-size="11">12</text><text x="780" y="234" fill="#b8532e" font-family="'Literata', Georgia, serif" font-size="22">30%</text><path stroke="#d9d0bd" d="M40 260h820"/><text x="40" y="295" fill="#1a1815" font-family="'Literata', Georgia, serif" font-size="15">LinkedIn</text><path fill="#6a6355" d="M220 281h82v12h-82z"/><text x="310" y="292" fill="#1a1815" font-family="'Space Grotesk', ui-monospace, monospace" font-size="11">220</text><path fill="#b8532e" d="M500 281h68v12h-68z"/><text x="576" y="292" fill="#1a1815" font-family="'Space Grotesk', ui-monospace, monospace" font-size="11">11</text><text x="780" y="294" fill="#6a6355" font-family="'Literata', Georgia, serif" font-size="16">5%</text><path stroke="#d9d0bd" d="M40 320h820"/><text x="40" y="355" fill="#1a1815" font-family="'Literata', Georgia, serif" font-size="15">Newsletter</text><path fill="#6a6355" d="M220 341h41v12h-41z"/><text x="269" y="352" fill="#1a1815" font-family="'Space Grotesk', ui-monospace, monospace" font-size="11">95</text><path fill="#b8532e" d="M500 341h126v12H500z"/><text x="634" y="352" fill="#b8532e" font-family="'Space Grotesk', ui-monospace, monospace" font-size="11">22</text><text x="780" y="354" fill="#b8532e" font-family="'Literata', Georgia, serif" font-size="22">23%</text><path stroke="#d9d0bd" d="M40 380h820"/><text x="40" y="410" fill="#6a6355" font-family="'Literata', Georgia, serif" font-size="13" font-style="italic">Volume reports would keep buying the conf talk. Conversion says the tutorial is doing the work.</text><text x="860" y="410" fill="#8a8072" font-family="'Space Grotesk', ui-monospace, monospace" font-size="10" text-anchor="end">— illustrative figures</text></svg>