<svg viewBox="0 0 900 500" xmlns="http://www.w3.org/2000/svg" role="img">
<rect width="900" height="500" fill="#F8F6F2"></rect>

<text x="60" y="70" font-family="Space Grotesk, system-ui, sans-serif" font-size="16" font-weight="600" fill="#1C1917">Rollout tiers</text>


  <rect x="60" y="110" width="130" height="60" fill="#F8F6F2" stroke="#1C1917" stroke-width="1.5"></rect>
  <text x="125" y="137" font-family="Space Grotesk, system-ui, sans-serif" font-size="14" font-weight="600" fill="#1C1917" text-anchor="middle">Tier 1</text>
  <text x="125" y="157" font-family="Space Grotesk, system-ui, sans-serif" font-size="12" font-weight="500" fill="#1C1917" text-anchor="middle">Absorb</text>

  <path d="M 190 140 L 220 140" stroke="#1C1917" stroke-width="1.5"></path>
  <path d="M 220 140 L 212 135 L 212 145 Z" fill="#1C1917"></path>

  <rect x="220" y="110" width="500" height="60" fill="#F8F6F2" stroke="#1C1917" stroke-width="1"></rect>
  <text x="240" y="147" font-family="Space Grotesk, system-ui, sans-serif" font-size="14" font-weight="500" fill="#1C1917">policy summary</text>


  <rect x="60" y="210" width="130" height="60" fill="#FEF3C7" stroke="#1C1917" stroke-width="1.5"></rect>
  <text x="125" y="237" font-family="Space Grotesk, system-ui, sans-serif" font-size="14" font-weight="600" fill="#1C1917" text-anchor="middle">Tier 2</text>
  <text x="125" y="257" font-family="Space Grotesk, system-ui, sans-serif" font-size="12" font-weight="500" fill="#1C1917" text-anchor="middle">Guided</text>

  <path d="M 190 240 L 220 240" stroke="#1C1917" stroke-width="1.5"></path>
  <path d="M 220 240 L 212 235 L 212 245 Z" fill="#1C1917"></path>

  <rect x="220" y="210" width="500" height="60" fill="#F8F6F2" stroke="#1C1917" stroke-width="1"></rect>
  <text x="240" y="247" font-family="Space Grotesk, system-ui, sans-serif" font-size="14" font-weight="500" fill="#1C1917">runbook + pilot</text>


  <rect x="60" y="310" width="130" height="60" fill="#D97706" stroke="#1C1917" stroke-width="1.5"></rect>
  <text x="125" y="337" font-family="Space Grotesk, system-ui, sans-serif" font-size="14" font-weight="600" fill="#F8F6F2" text-anchor="middle">Tier 3</text>
  <text x="125" y="357" font-family="Space Grotesk, system-ui, sans-serif" font-size="12" font-weight="500" fill="#F8F6F2" text-anchor="middle">Supported</text>

  <path d="M 190 340 L 220 340" stroke="#1C1917" stroke-width="1.5"></path>
  <path d="M 220 340 L 212 335 L 212 345 Z" fill="#1C1917"></path>

  <rect x="220" y="310" width="500" height="60" fill="#F8F6F2" stroke="#1C1917" stroke-width="1"></rect>
  <text x="240" y="347" font-family="Space Grotesk, system-ui, sans-serif" font-size="14" font-weight="500" fill="#1C1917">runbook + named contact + weekly check-in</text>


<path d="M 720 240 L 760 240" stroke="#1C1917" stroke-width="1.5"></path>
<path d="M 760 240 L 752 235 L 752 245 Z" fill="#1C1917"></path>
<rect x="760" y="215" width="110" height="50" fill="#1C1917"></rect>
<text x="815" y="238" font-family="Space Grotesk, system-ui, sans-serif" font-size="13" font-weight="600" fill="#F8F6F2" text-anchor="middle">outcome</text>
<text x="815" y="256" font-family="Space Grotesk, system-ui, sans-serif" font-size="16" font-weight="600" fill="#D97706" text-anchor="middle">0 incidents</text>

<text x="60" y="440" font-family="Literata, Georgia, serif" font-style="italic" font-size="14" fill="#1C1917" opacity="0.85">support tapers with confidence, not calendar</text>

</svg>